HIERARCHY
ROOT Hips
{
 OFFSET 0.000000 0.000000 0.000000
 CHANNELS 6 Xposition Yposition Zposition Yrotation Xrotation Zrotation
 JOINT Chest
 {
  OFFSET 0.000000 9.585900 0.002600
  CHANNELS 3 Yrotation Xrotation Zrotation
  JOINT Chest2
  {
   OFFSET 0.000000 9.601200 -0.005300
   CHANNELS 3 Yrotation Xrotation Zrotation
   JOINT Chest3
   {
    OFFSET 0.000000 9.561800 0.000000
    CHANNELS 3 Yrotation Xrotation Zrotation
    JOINT Chest4
    {
     OFFSET 0.000000 9.552100 0.000000
     CHANNELS 3 Yrotation Xrotation Zrotation
     JOINT Neck
     {
      OFFSET 0.000000 14.453000 0.000000
      CHANNELS 3 Yrotation Xrotation Zrotation
      JOINT Head
      {
       OFFSET 0.000000 8.936500 -0.011300
       CHANNELS 3 Yrotation Xrotation Zrotation
       End Site
       {
        OFFSET 0.000000 17.073600 -0.006000
       }
      }
     }
     JOINT RightCollar
     {
      OFFSET -2.921100 9.558500 0.000000
      CHANNELS 3 Yrotation Xrotation Zrotation
      JOINT RightShoulder
      {
       OFFSET -13.519700 0.000000 0.000000
       CHANNELS 3 Yrotation Xrotation Zrotation
       JOINT RightElbow
       {
        OFFSET 0.000000 -29.696600 0.000000
        CHANNELS 3 Yrotation Xrotation Zrotation
        JOINT RightWrist
        {
         OFFSET 0.000000 -24.004700 0.000000
         CHANNELS 3 Yrotation Xrotation Zrotation
         End Site
         {
          OFFSET 0.000000 -17.728500 0.000000
         }
        }
       }
      }
     }
     JOINT LeftCollar
     {
      OFFSET 2.921100 9.558500 0.000000
      CHANNELS 3 Yrotation Xrotation Zrotation
      JOINT LeftShoulder
      {
       OFFSET 13.519700 0.000000 0.000000
       CHANNELS 3 Yrotation Xrotation Zrotation
       JOINT LeftElbow
       {
        OFFSET 0.000000 -29.696600 0.000000
        CHANNELS 3 Yrotation Xrotation Zrotation
        JOINT LeftWrist
        {
         OFFSET 0.000000 -24.004700 0.000000
         CHANNELS 3 Yrotation Xrotation Zrotation
         End Site
         {
          OFFSET 0.000000 -17.728500 0.000000
         }
        }
       }
      }
     }
    }
   }
  }
 }
 JOINT RightHip
 {
  OFFSET -7.771700 -0.012900 -0.001300
  CHANNELS 3 Yrotation Xrotation Zrotation
  JOINT RightKnee
  {
   OFFSET 0.000000 -40.869800 0.001200
   CHANNELS 3 Yrotation Xrotation Zrotation
   JOINT RightAnkle
   {
    OFFSET 0.000000 -39.717900 0.002100
    CHANNELS 3 Yrotation Xrotation Zrotation
    JOINT RightToe
    {
     OFFSET 0.000000 -4.965400 11.033500
     CHANNELS 3 Yrotation Xrotation Zrotation
     End Site
     {
      OFFSET 0.000000 -1.423100 5.872300
     }
    }
   }
  }
 }
 JOINT LeftHip
 {
  OFFSET 7.771700 -0.012900 -0.001300
  CHANNELS 3 Yrotation Xrotation Zrotation
  JOINT LeftKnee
  {
   OFFSET 0.000000 -40.869800 0.001200
   CHANNELS 3 Yrotation Xrotation Zrotation
   JOINT LeftAnkle
   {
    OFFSET 0.000000 -39.717900 0.002100
    CHANNELS 3 Yrotation Xrotation Zrotation
    JOINT LeftToe
    {
     OFFSET 0.000000 -4.965400 11.033500
     CHANNELS 3 Yrotation Xrotation Zrotation
     End Site
     {
      OFFSET 0.000000 -1.423100 5.872300
     }
    }
   }
  }
 }
}
MOTION
Frames: 13
Frame Time: 0.008333
-93.486105 57.205820 -0.101643 165.043440 -9.303013 -0.199159 3.288024 9.992403 0.514441 0.183651 0.628071 -0.021899 0.322041 1.080116 -0.057724 2.726905 9.259634 -0.217272 2.563917 18.896316 -2.100655 5.356038 -0.557742 -4.653194 2.362163 -2.629727 -9.391530 -0.116803 -3.005721 -4.330903 -128.089508 -77.239395 147.810894 -4.808489 5.906527 -26.306078 -7.224185 -2.517683 8.320872 3.329293 -11.123364 0.592461 145.955138 -62.060765 -176.985768 -2.381169 7.155740 9.286365 -19.049511 -62.950232 6.803277 -29.106035 74.986529 -28.365499 -1.074630 -8.184962 -3.318457 -0.074020 0.757655 -0.064060 0.616320 -66.067721 11.364774 42.074273 62.402811 34.047015 -17.229087 -8.440865 6.483095 -0.451554 -1.140402 -0.207625
-93.492447 57.204858 -0.098414 165.052342 -9.322481 -0.199747 3.281101 10.009087 0.508900 0.189495 0.631281 -0.043468 0.319941 1.085530 -0.048428 2.724022 9.274671 -0.219082 2.681641 18.907968 -2.199942 5.601959 -0.522177 -4.871033 2.432568 -2.637391 -9.429051 -0.134692 -3.021729 -4.276632 -130.236426 -77.336060 149.576508 -4.708088 5.925304 -26.045488 -7.271118 -2.540305 8.326488 3.292574 -11.178439 0.562821 146.170317 -61.759102 -177.171764 -2.304348 7.022685 9.240571 -19.086461 -62.931952 6.808767 -29.099688 74.984282 -28.358218 -1.060160 -8.176523 -3.325304 -0.076295 0.757117 -0.065110 0.599280 -66.050096 11.354900 42.084013 62.388276 34.059151 -17.229918 -8.399745 6.490891 -0.445612 -1.149739 -0.213950
-93.498252 57.203687 -0.093131 165.070303 -9.331630 -0.208425 3.267933 10.018690 0.500914 0.193110 0.638533 -0.044075 0.320547 1.089500 -0.049184 2.720855 9.281959 -0.218320 2.807239 18.929296 -2.307666 5.861987 -0.485058 -5.094766 2.498354 -2.637844 -9.471318 -0.154405 -3.039593 -4.218964 -132.718675 -77.448435 151.631073 -4.578466 5.945366 -25.727333 -7.312191 -2.558732 8.325373 3.269067 -11.239228 0.533646 146.373276 -61.463810 -177.351067 -2.212997 6.889624 9.193100 -19.140683 -62.921393 6.830824 -29.111053 74.978511 -28.366604 -1.048505 -8.164560 -3.331961 -0.074354 0.754579 -0.063907 0.558732 -66.041837 11.357197 42.076595 62.366911 34.062153 -17.232259 -8.354690 6.490844 -0.441419 -1.168049 -0.221997
-93.503421 57.201978 -0.083490 165.157794 -9.316205 -0.238437 3.202199 10.019997 0.486750 0.186480 0.634351 -0.029759 0.321400 1.093839 -0.049927 2.713682 9.270683 -0.204794 2.940530 18.971957 -2.429189 6.133002 -0.445311 -5.320194 2.562267 -2.617004 -9.523102 -0.133697 -3.060136 -4.143085 -135.650345 -77.581865 154.049915 -4.414025 5.966962 -25.356194 -7.338718 -2.564539 8.316993 3.261448 -11.307765 0.498912 146.547098 -61.182300 -177.512263 -2.108136 6.756063 9.148685 -19.276209 -62.929867 6.878424 -29.147211 74.967503 -28.393090 -1.059871 -8.097949 -3.343794 -0.049496 0.697932 -0.052045 0.430372 -66.057782 11.377147 42.008358 62.338381 34.022924 -17.276653 -8.359928 6.458428 -0.376731 -1.111495 -0.202991
-93.507757 57.201005 -0.077577 165.175414 -9.323885 -0.255424 3.193518 10.033441 0.492885 0.195493 0.644693 -0.041360 0.313408 1.087013 -0.038952 2.718583 9.296847 -0.219120 3.080943 18.992383 -2.534237 6.413934 -0.401393 -5.542628 2.582955 -2.638415 -9.526791 -0.082169 -3.017465 -4.052583 -139.219295 -77.697509 157.064762 -4.210912 5.988024 -24.934909 -7.357641 -2.597478 8.342992 3.261905 -11.383694 0.453226 146.695484 -60.918985 -177.654441 -1.990143 6.624010 9.113047 -19.352511 -62.917652 6.919603 -29.138904 74.963354 -28.383387 -1.032389 -8.078303 -3.351016 -0.059545 0.690813 -0.053560 0.373133 -66.050870 11.394172 41.994119 62.315027 34.027150 -17.265211 -8.322376 6.446746 -0.348917 -1.108543 -0.196741
-93.512762 57.200237 -0.072394 165.200516 -9.334203 -0.267400 3.176912 10.050568 0.492129 0.208388 0.656499 -0.055500 0.318435 1.097967 -0.046220 2.736187 9.356402 -0.256176 3.217439 18.963199 -2.595278 6.701868 -0.353368 -5.757303 2.573676 -2.713665 -9.484311 -0.115087 -2.952751 -3.976203 -143.003982 -77.759654 160.333612 -3.970909 6.006526 -24.476786 -7.419190 -2.679197 8.406821 3.282725 -11.462786 0.425493 146.839992 -60.674993 -177.789697 -1.859990 6.495209 9.094620 -19.448233 -62.897757 6.960668 -29.053465 74.964340 -28.311407 -0.993329 -8.075722 -3.352766 -0.091597 0.698263 -0.062756 0.315862 -66.040672 11.399783 41.980132 62.290588 34.030449 -17.252322 -8.281459 6.434652 -0.334744 -1.094358 -0.185011
-93.516995 57.199875 -0.069047 165.216846 -9.355832 -0.278093 3.199238 10.100119 0.463710 0.195184 0.648106 -0.039431 0.325711 1.109809 -0.054563 2.724277 9.347122 -0.241084 3.367454 19.006717 -2.707527 6.992654 -0.303589 -5.961585 2.659040 -2.663258 -9.564537 -0.241428 -2.971437 -3.859626 -146.759459 -77.806621 163.552201 -3.708017 6.023829 -24.008995 -7.446875 -2.707569 8.409439 3.302815 -11.542050 0.399025 146.985584 -60.446983 -177.921764 -1.724193 6.374756 9.106146 -19.473671 -62.873296 6.965296 -29.063158 74.957991 -28.316788 -0.993740 -8.063662 -3.354556 -0.089051 0.696696 -0.060434 0.267594 -66.020518 11.411257 41.985717 62.273906 34.043721 -17.247887 -8.240911 6.444303 -0.350963 -1.091846 -0.191336
-93.521779 57.199404 -0.065053 165.230832 -9.372013 -0.284559 3.191599 10.120447 0.462651 0.215183 0.664374 -0.062639 0.327566 1.115317 -0.056484 2.715100 9.344726 -0.231275 3.521066 19.048140 -2.814704 7.283155 -0.254919 -6.152840 2.700824 -2.624684 -9.612615 -0.396326 -2.895543 -3.758566 -150.812612 -77.743553 167.123827 -3.439387 6.042913 -23.557727 -7.466147 -2.741146 8.407954 3.320567 -11.628212 0.379111 147.125048 -60.232705 -178.045192 -1.591044 6.266960 9.160745 -19.518882 -62.851606 6.977853 -29.049752 74.949194 -28.299654 -0.980796 -8.054321 -3.361225 -0.088140 0.701529 -0.061944 0.239061 -66.006457 11.419239 41.963804 62.266869 34.029665 -17.290458 -8.187919 6.458484 -0.320951 -1.094314 -0.194576
-93.524535 57.197371 -0.050880 165.283540 -9.330433 -0.322957 3.169531 10.094356 0.466837 0.204123 0.657576 -0.050115 0.345192 1.131504 -0.076185 2.719571 9.366646 -0.241400 3.668296 19.059341 -2.892035 7.569207 -0.211919 -6.326193 2.698510 -2.610873 -9.618062 -0.564567 -2.811644 -3.693245 -154.709202 -77.621543 170.571201 -3.174257 6.061085 -23.137584 -7.497793 -2.797677 8.423700 3.333022 -11.730971 0.371846 147.275762 -60.036376 -178.167061 -1.460762 6.168636 9.256358 -19.714603 -62.872370 7.100155 -29.011091 74.932744 -28.258252 -0.936080 -8.031591 -3.379763 -0.102991 0.698504 -0.066364 0.101154 -66.050340 11.478353 41.905424 62.226606 34.008872 -17.298123 -8.128409 6.419025 -0.287093 -1.083838 -0.178032
-93.531910 57.196235 -0.044622 165.322484 -9.326639 -0.319201 3.156933 10.108877 0.429323 0.191291 0.650058 -0.034709 0.369137 1.149027 -0.098902 2.719338 9.381813 -0.252077 3.818659 19.072749 -2.961043 7.844514 -0.178822 -6.478768 2.680540 -2.576560 -9.614654 -0.729302 -2.771021 -3.662633 -158.257280 -77.487842 173.681537 -2.926427 6.076431 -22.761116 -7.509795 -2.866572 8.365410 3.305993 -11.841369 0.441267 147.462036 -59.862713 -178.303602 -1.325288 6.075987 9.374939 -19.753131 -62.877215 7.090279 -28.988837 74.931148 -28.238153 -0.933736 -8.031624 -3.380037 -0.102785 0.707810 -0.065581 0.053302 -66.059425 11.427665 41.949327 62.183554 34.078097 -17.258118 -8.081210 6.410343 -0.324924 -1.091935 -0.190639
-93.535696 57.194921 -0.037383 165.337646 -9.320764 -0.333386 3.179246 10.122062 0.411289 0.239976 0.676100 -0.076938 0.335220 1.131432 -0.063598 2.768212 9.439700 -0.314436 3.935177 19.036441 -2.962618 8.103576 -0.154619 -6.610676 2.591275 -2.573868 -9.543984 -0.918264 -2.748834 -3.665969 -161.420131 -77.333914 176.451387 -2.713793 6.093973 -22.444375 -7.596607 -2.947070 8.459915 3.316709 -11.984016 0.422089 147.682335 -59.710736 -178.456926 -1.184146 5.995687 9.499894 -19.809272 -62.876354 7.125341 -29.002726 74.920136 -28.242663 -0.922689 -8.023526 -3.391193 -0.096350 0.711430 -0.062887 -0.002663 -66.066862 11.441174 41.946112 62.158146 34.099027 -17.259296 -8.059495 6.393827 -0.320753 -1.076902 -0.187001
-93.538635 57.193712 -0.032255 165.364705 -9.325977 -0.351759 3.198057 10.145300 0.395383 0.252788 0.678973 -0.084327 0.338722 1.137290 -0.066644 2.801772 9.473108 -0.351500 4.051599 19.024207 -2.984313 8.342711 -0.135970 -6.721025 2.500180 -2.535420 -9.485906 -1.135369 -2.742864 -3.707007 -164.111250 -77.175450 178.807625 -2.545773 6.115440 -22.200431 -7.657071 -3.024921 8.449716 3.290614 -12.130091 0.483690 147.908542 -59.577914 -178.605032 -1.043210 5.950399 9.618857 -19.887518 -62.861450 7.162126 -28.987594 74.914547 -28.221204 -0.907388 -8.020761 -3.402075 -0.097709 0.715822 -0.063697 -0.076678 -66.063663 11.461434 41.945605 62.136449 34.121777 -17.252421 -8.049417 6.382117 -0.312492 -1.065092 -0.191158
-93.541167 57.192510 -0.028664 165.409244 -9.337765 -0.374695 3.260475 10.185867 0.348527 0.213329 0.667571 -0.053891 0.342944 1.143558 -0.069970 2.826038 9.494143 -0.375032 4.165934 19.025750 -3.013510 8.560413 -0.119770 -6.809265 2.401993 -2.477141 -9.423526 -1.378551 -2.753758 -3.787951 -166.270054 -77.032078 -179.302901 -2.423294 6.141075 -22.032633 -7.711493 -3.093556 8.406790 3.256731 -12.288166 0.569607 148.088333 -59.466674 -178.709544 -0.906242 5.956092 9.717327 -19.977385 -62.838476 7.195657 -28.980459 74.910418 -28.211754 -0.889750 -8.019684 -3.408807 -0.102345 0.716067 -0.065823 -0.176618 -66.054610 11.489567 41.948432 62.117357 34.147225 -17.239974 -8.044674 6.368785 -0.303238 -1.050701 -0.193332
